<?xml version="1.0" encoding="iso-8859-1"?>
<!-- Generator: Adobe Illustrator 29.8.2, SVG Export Plug-In . SVG Version: 9.03 Build 0)  -->
<svg version="1.1" id="&#x5716;&#x5C64;_1" xmlns="http://www.w3.org/2000/svg" xmlns:xlink="http://www.w3.org/1999/xlink" x="0px"
	 y="0px" viewBox="0 0 21.3 22.78" style="enable-background:new 0 0 21.3 22.78;" xml:space="preserve">
<g>
	<g>
		<path style="fill:#03C100;" d="M19.71,9.369L19.71,9.369l-0.005-0.047c0-0.001,0-0.001,0-0.002c0-0.001,0-0.001,0-0.002
			l-0.021-0.175c-0.004-0.035-0.009-0.075-0.015-0.121l-0.004-0.036l-0.009,0.001c-0.222-1.263-0.832-2.462-1.777-3.485
			c-0.94-1.018-2.162-1.823-3.533-2.326c-1.175-0.431-2.421-0.649-3.704-0.649c-1.733,0-3.415,0.407-4.866,1.178
			c-2.798,1.486-4.448,4.219-4.204,6.961c0.126,1.419,0.682,2.77,1.608,3.906c0.871,1.07,2.049,1.933,3.408,2.496
			c0.835,0.346,1.661,0.51,2.535,0.682l0.102,0.02c0.241,0.048,0.305,0.113,0.322,0.139c0.031,0.048,0.015,0.143,0.002,0.195
			c-0.011,0.048-0.023,0.096-0.035,0.144c-0.094,0.383-0.191,0.779-0.115,1.215c0.088,0.502,0.401,0.789,0.86,0.79c0,0,0,0,0,0
			c0.493,0,1.055-0.331,1.426-0.55l0.05-0.029c0.886-0.521,1.721-1.108,2.35-1.561c1.375-0.992,2.934-2.117,4.102-3.571
			C19.363,13.077,19.917,11.194,19.71,9.369z M7.217,12.145H5.646c-0.237,0-0.43-0.192-0.43-0.43V8.418
			c0-0.237,0.192-0.43,0.43-0.43s0.43,0.192,0.43,0.43v2.867h1.141c0.237,0,0.43,0.192,0.43,0.43
			C7.646,11.953,7.454,12.145,7.217,12.145z M8.855,11.704c0,0.237-0.192,0.43-0.43,0.43c-0.237,0-0.43-0.192-0.43-0.43V8.407
			c0-0.237,0.192-0.43,0.43-0.43c0.237,0,0.43,0.192,0.43,0.43V11.704z M12.74,11.704c0,0.186-0.12,0.351-0.297,0.409
			c-0.044,0.014-0.088,0.021-0.133,0.021c-0.135,0-0.265-0.064-0.348-0.177l-1.548-2.131v1.879c0,0.237-0.192,0.43-0.43,0.43
			s-0.43-0.192-0.43-0.43V8.501c0-0.186,0.12-0.351,0.297-0.409c0.177-0.057,0.371,0.006,0.481,0.156l1.548,2.131V8.407
			c0-0.237,0.192-0.43,0.43-0.43s0.43,0.192,0.43,0.43V11.704z M15.872,12.066h-2.127c-0.237,0-0.43-0.192-0.43-0.43V9.988V8.339
			c0-0.237,0.192-0.43,0.43-0.43h2.061c0.237,0,0.43,0.192,0.43,0.43s-0.192,0.43-0.43,0.43h-1.631v0.789h1.324
			c0.237,0,0.43,0.192,0.43,0.43s-0.192,0.43-0.43,0.43h-1.324v0.789h1.697c0.237,0,0.43,0.192,0.43,0.43
			C16.301,11.873,16.109,12.066,15.872,12.066z"/>
	</g>
</g>
</svg>
